<svg width="154" height="60" viewBox="0 0 154 60" fill="none" xmlns="http://www.w3.org/2000/svg">
<path d="M19.3412 19.6376C19.7409 19.6384 20.1335 19.742 20.4805 19.9384C21.2617 20.3764 21.7474 21.2267 21.7474 22.1497L21.7474 40.8291C21.7474 41.7546 21.2617 42.6023 20.4805 43.0403C20.1253 43.2423 19.7217 43.3461 19.3121 43.341C18.9024 43.3359 18.5017 43.2221 18.1517 43.0113L2.01563 33.4552C1.67934 33.2466 1.40212 32.9569 1.20995 32.6133C1.01778 32.2696 0.916973 31.8834 0.916973 31.4907C0.916973 31.098 1.01778 30.7117 1.20995 30.3681C1.40212 30.0244 1.67934 29.7347 2.01563 29.5261L18.1543 19.9674C18.5124 19.7532 18.9227 19.6392 19.3412 19.6376Z" fill="#18AC00"/>
<path d="M80 5C66.2 5 55 16.2 55 30C55 43.8 66.2 55 80 55C93.8 55 105 43.8 105 30C105 16.2 93.8 5 80 5ZM75 41.25V18.75L90 30L75 41.25Z" fill="#18AC00"/>
<path d="M134.659 40.3624C134.259 40.3616 133.867 40.258 133.52 40.0616C132.738 39.6236 132.253 38.7733 132.253 37.8503V19.1709C132.253 18.2454 132.738 17.3977 133.52 16.9597C133.875 16.7577 134.278 16.6539 134.688 16.659C135.098 16.6641 135.498 16.7779 135.848 16.9887L151.984 26.5448C152.321 26.7534 152.598 27.0431 152.79 27.3867C152.982 27.7304 153.083 28.1166 153.083 28.5093C153.083 28.902 152.982 29.2883 152.79 29.6319C152.598 29.9756 152.321 30.2653 151.984 30.4739L135.846 40.0326C135.488 40.2468 135.077 40.3608 134.659 40.3624Z" fill="#18AC00"/>
</svg>
